<svg xmlns="http://www.w3.org/2000/svg" viewBox="0 0 176.65 16.82"><g data-name="レイヤー 2"><g data-name="レイヤー 1"><path d="M.31 16.3a1.06 1.06 0 01-.31-.78V1.3A1.06 1.06 0 01.31.51a1.09 1.09 0 01.78-.3h9.49a1.05 1.05 0 01.78.28 1 1 0 01.3.75.91.91 0 01-.3.71 1.05 1.05 0 01-.78.28h-8.4v5.1h6a1.09 1.09 0 01.82.28 1 1 0 010 1.45 1.1 1.1 0 01-.77.29h-6v6.17a1.06 1.06 0 01-1.09 1.09 1.06 1.06 0 01-.83-.31zm26.25-.68a1 1 0 01-.28.71 1 1 0 01-.76.28 1.06 1.06 0 01-.95-.52L21 10.29h-3.11v5.23a1.09 1.09 0 01-.3.78 1.1 1.1 0 01-1.88-.78V1.3A1.06 1.06 0 0116 .51a1.09 1.09 0 01.78-.3h3.78a5.88 5.88 0 012.78.65 4.68 4.68 0 011.91 1.83A5.2 5.2 0 0126 5.38a4.72 4.72 0 01-2.82 4.39l3.21 5.16a1.32 1.32 0 01.17.69zm-6-7.35a3.47 3.47 0 002.35-.8 2.65 2.65 0 00.93-2.09 3 3 0 00-.93-2.27 3.25 3.25 0 00-2.35-.88h-2.67v6zm13.76 7.48a7.51 7.51 0 01-2.95-3 9 9 0 01-1.05-4.35 8.92 8.92 0 011.05-4.35 7.61 7.61 0 012.95-3 9.3 9.3 0 018.66 0 7.71 7.71 0 013 3A8.92 8.92 0 0147 8.4a9 9 0 01-1.06 4.36 7.58 7.58 0 01-2.95 3 9.32 9.32 0 01-8.67 0zM41.87 14a5.92 5.92 0 002.23-2.32 6.8 6.8 0 00.8-3.28 6.8 6.8 0 00-.8-3.28 5.87 5.87 0 00-2.22-2.31 6.59 6.59 0 00-6.44 0 5.87 5.87 0 00-2.22 2.31 6.8 6.8 0 00-.8 3.28 6.8 6.8 0 00.8 3.28A6 6 0 0035.45 14a6.49 6.49 0 006.42 0zm9.28 2.31a1.06 1.06 0 01-.31-.79V1.3a1.06 1.06 0 01.31-.79 1 1 0 01.76-.3 1 1 0 01.46.12 1.11 1.11 0 01.38.28l9.16 12.18V1.3a1.06 1.06 0 01.31-.79 1.09 1.09 0 01.78-.3 1.06 1.06 0 01.77.3 1.09 1.09 0 01.3.79v14.22a1.09 1.09 0 01-.3.79 1.06 1.06 0 01-.77.3 1.35 1.35 0 01-.47-.09.78.78 0 01-.37-.29L53 4.05v11.47a1.09 1.09 0 01-.3.78 1 1 0 01-.79.31 1 1 0 01-.76-.3zM81.13.49a1 1 0 01.29.73 1 1 0 01-1 1h-4.53v13.3a1.09 1.09 0 11-2.18 0V2.23h-4.54a1 1 0 01-1-1 1 1 0 011-1h11.24a1 1 0 01.72.26z"/><path d="M111.34.46a1 1 0 01.21.67 2.21 2.21 0 01-.08.59l-4.22 14a1.57 1.57 0 01-.43.64 1 1 0 01-.67.24 1 1 0 01-.67-.24 1.43 1.43 0 01-.42-.62l-3.13-12.1-3.17 12.09a1.48 1.48 0 01-.43.64 1 1 0 01-.66.24 1.07 1.07 0 01-.67-.23 1.18 1.18 0 01-.42-.63l-4.22-14a1.77 1.77 0 01-.09-.56.94.94 0 01.25-.7.86.86 0 01.66-.25 1.08 1.08 0 01.66.21 1.18 1.18 0 01.41.61l3.44 12 3.17-11.84a1 1 0 01.38-.53 1.19 1.19 0 011.32 0 .83.83 0 01.38.52l3.21 12L109.64.92a.87.87 0 01.36-.54 1.29 1.29 0 01.7-.17.77.77 0 01.64.25zm7.05 15.29a7.45 7.45 0 01-3-3 9 9 0 01-1-4.36 8.92 8.92 0 011-4.35 7.55 7.55 0 013-3 9.28 9.28 0 018.65 0 7.64 7.64 0 013 3 8.81 8.81 0 011.06 4.35 8.85 8.85 0 01-1.1 4.37 7.58 7.58 0 01-3 3 9.3 9.3 0 01-8.66 0zm7.55-1.75a6 6 0 002.22-2.32A6.8 6.8 0 00129 8.4a6.8 6.8 0 00-.8-3.28 5.92 5.92 0 00-2.2-2.31 6.61 6.61 0 00-6.45 0 5.94 5.94 0 00-2.22 2.31 6.8 6.8 0 00-.79 3.28 6.8 6.8 0 00.79 3.28 6.06 6.06 0 002.18 2.32 6.51 6.51 0 006.43 0zm20.24 1.62a1 1 0 01-.28.71 1 1 0 01-.77.28 1.07 1.07 0 01-.95-.52l-3.61-5.8h-3.06v5.23a1.1 1.1 0 01-.31.78 1 1 0 01-.79.31 1 1 0 01-.77-.31 1.06 1.06 0 01-.32-.78V1.3a1.07 1.07 0 01.32-.79 1.08 1.08 0 01.77-.3h3.78a5.92 5.92 0 012.81.65 4.74 4.74 0 011.91 1.83 5.3 5.3 0 01.68 2.69 4.67 4.67 0 01-.78 2.62 4.8 4.8 0 01-2.05 1.75l3.24 5.18a1.32 1.32 0 01.18.69zm-6-7.35a3.5 3.5 0 002.36-.8 2.67 2.67 0 00.92-2.09 3 3 0 00-.92-2.27 3.27 3.27 0 00-2.36-.88h-2.68v6zM151 16.3a1 1 0 01-.33-.78V1.3a1 1 0 01.33-.77 1.07 1.07 0 01.77-.32 1.06 1.06 0 01.77.32 1 1 0 01.32.77v6.3l7-6.95a2 2 0 01.45-.35 1.06 1.06 0 01.45-.09.88.88 0 01.68.26.89.89 0 01.25.64 1.32 1.32 0 01-.4 1l-5.39 5.32 5.46 7.44a1.11 1.11 0 01.21.67 1.15 1.15 0 01-.27.75.87.87 0 01-.69.32 1 1 0 01-.91-.46L154.39 9l-1.51 1.51v5.06a1.06 1.06 0 01-.32.78 1 1 0 01-.77.31 1.06 1.06 0 01-.79-.36zm16-.4a5 5 0 01-2.3-2.42 1.14 1.14 0 01-.1-.42.78.78 0 01.23-.55 1.13 1.13 0 01.63-.33h.21a1.18 1.18 0 01.64.2 1.22 1.22 0 01.45.53 3.08 3.08 0 001.49 1.39 5.31 5.31 0 002.46.57 4.68 4.68 0 002.67-.73 2.27 2.27 0 001.09-2 2.68 2.68 0 00-.93-2.05 4.75 4.75 0 00-2.81-1 7.19 7.19 0 01-4.09-1.52 4 4 0 01-1.49-3.18A3.64 3.64 0 01166 2a4.76 4.76 0 012.1-1.49A8.12 8.12 0 01171 0a5.89 5.89 0 013.05.74 6.38 6.38 0 012.1 2.1 1.37 1.37 0 01.25.75.9.9 0 01-.42.76 1 1 0 01-.54.15 1.21 1.21 0 01-.59-.16 1 1 0 01-.42-.43 4 4 0 00-1.42-1.44A4.25 4.25 0 00170.9 2a4.75 4.75 0 00-2.59.62 2 2 0 00-1 1.79 2.28 2.28 0 00.88 1.83 6 6 0 003.15 1 6.61 6.61 0 013.91 1.53 4.32 4.32 0 011.38 3.35 4.15 4.15 0 01-.82 2.59 4.94 4.94 0 01-2.17 1.62 8 8 0 01-2.91.53 7.61 7.61 0 01-3.73-.96z" fill="#808797"/></g></g></svg>