<svg xmlns="http://www.w3.org/2000/svg" viewBox="0 0 176.65 88.97"><g data-name="レイヤー 2"><g data-name="レイヤー 1"><path d="M88.79 33.39v18.1L67.16 39v-7m21.66 19.5L110.46 39V20.93" stroke="#808797" fill="none" stroke-linecap="round" stroke-linejoin="round" stroke-width="3"/><path d="M67.13 23v-9l.3.17 18.65 10.62m21.73-12.32l-19-10.97L67.13 14" fill="none" stroke-linecap="round" stroke-linejoin="round" stroke-width="3" stroke="#fff"/><path d="M.31 88.44a1.06 1.06 0 01-.31-.78V73.45a1 1 0 01.31-.79 1.09 1.09 0 01.78-.3h9.49a1.05 1.05 0 01.78.28 1 1 0 01.3.74.92.92 0 01-.3.72 1.09 1.09 0 01-.78.27h-8.4v5.1h6a1.1 1.1 0 01.77.29 1 1 0 010 1.45 1.09 1.09 0 01-.77.28h-6v6.17a1.06 1.06 0 01-.31.78 1.06 1.06 0 01-.78.32 1.06 1.06 0 01-.78-.32zm26.25-.67a.94.94 0 01-.28.7 1 1 0 01-.76.29 1.07 1.07 0 01-.95-.53L21 82.44h-3.11v5.22a1.09 1.09 0 01-.3.78 1.12 1.12 0 01-1.57 0 1.06 1.06 0 01-.31-.78V73.45a1 1 0 01.31-.79 1.09 1.09 0 01.78-.3h3.78a5.76 5.76 0 012.78.65 4.66 4.66 0 011.91 1.82 5.23 5.23 0 01.73 2.69 4.76 4.76 0 01-.76 2.65 4.68 4.68 0 01-2.06 1.74l3.21 5.17a1.27 1.27 0 01.17.69zm-6-7.35a3.43 3.43 0 002.35-.81 2.63 2.63 0 00.93-2.09 3 3 0 00-.93-2.27 3.29 3.29 0 00-2.35-.88h-2.67v6zm13.76 7.48a7.6 7.6 0 01-2.95-3 9.54 9.54 0 010-8.7 7.49 7.49 0 012.95-3 9.3 9.3 0 018.66 0 7.57 7.57 0 013 3 9.46 9.46 0 010 8.7 7.67 7.67 0 01-2.95 3 9.32 9.32 0 01-8.67 0zm7.55-1.76a5.92 5.92 0 002.23-2.32 7.1 7.1 0 000-6.55A5.87 5.87 0 0041.88 75a6.59 6.59 0 00-6.44 0 5.87 5.87 0 00-2.22 2.31 7.1 7.1 0 000 6.55 6 6 0 002.23 2.32 6.49 6.49 0 006.42 0zm9.28 2.31a1 1 0 01-.31-.79V73.45a1 1 0 01.31-.79 1 1 0 01.76-.3 1 1 0 01.46.11 1.25 1.25 0 01.38.28l9.16 12.18V73.45a1 1 0 01.31-.79 1.09 1.09 0 01.78-.3 1.06 1.06 0 01.77.3 1.08 1.08 0 01.3.79v14.21a1 1 0 01-1.07 1.1 1.17 1.17 0 01-.47-.1.76.76 0 01-.37-.28L53 76.2v11.46a1.09 1.09 0 01-.3.78 1.05 1.05 0 01-.79.32 1 1 0 01-.76-.31zm29.98-15.81a1 1 0 01-.72 1.73h-4.52v13.29a1.09 1.09 0 11-2.18 0V74.37h-4.54a1 1 0 110-2h11.24a1 1 0 01.72.27z" fill="#fff"/><path d="M111.34 72.61a1 1 0 01.21.67 2.21 2.21 0 01-.08.59l-4.22 14a1.68 1.68 0 01-.43.65 1 1 0 01-.67.24 1 1 0 01-.67-.24 1.49 1.49 0 01-.42-.62l-3.13-12.1-3.17 12.07a1.58 1.58 0 01-.43.65 1 1 0 01-.66.24 1.07 1.07 0 01-.67-.23 1.26 1.26 0 01-.42-.63l-4.22-14a1.79 1.79 0 01-.09-.57.93.93 0 01.25-.69.86.86 0 01.66-.25 1.08 1.08 0 01.66.21 1.2 1.2 0 01.41.6l3.44 12 3.17-11.84a.92.92 0 01.38-.52 1.13 1.13 0 01.67-.21 1.2 1.2 0 01.65.18.85.85 0 01.38.53l3.21 12 3.49-12.16a.92.92 0 01.37-.55 1.3 1.3 0 01.7-.16.77.77 0 01.63.14zm7.05 15.29a7.53 7.53 0 01-3-3 9.54 9.54 0 010-8.7 7.42 7.42 0 013-3 9.28 9.28 0 018.65 0 7.51 7.51 0 013 3 9.46 9.46 0 010 8.7 7.67 7.67 0 01-3 3 9.3 9.3 0 01-8.66 0zm7.55-1.76a6 6 0 002.22-2.32 7.1 7.1 0 000-6.55A5.92 5.92 0 00126 75a6.61 6.61 0 00-6.45 0 5.94 5.94 0 00-2.22 2.31 7.18 7.18 0 000 6.55 6.06 6.06 0 005.39 3.14 6.17 6.17 0 003.22-.86zm20.24 1.63a1 1 0 01-.28.7 1 1 0 01-.77.29 1.08 1.08 0 01-.95-.53l-3.61-5.79h-3.06v5.22a1.1 1.1 0 01-.31.78 1 1 0 01-.79.32 1.09 1.09 0 01-1.09-1.1V73.45a1.05 1.05 0 01.32-.79 1.08 1.08 0 01.77-.3h3.78A5.8 5.8 0 01143 73a4.72 4.72 0 011.91 1.82 5.32 5.32 0 01.68 2.69 4.7 4.7 0 01-2.81 4.39l3.22 5.18a1.27 1.27 0 01.18.69zm-6-7.35a3.45 3.45 0 002.36-.81 2.66 2.66 0 00.92-2.09 3 3 0 00-.92-2.27 3.31 3.31 0 00-2.36-.88h-2.68v6zM151 88.44a1 1 0 01-.33-.78V73.45a1 1 0 01.33-.78 1.06 1.06 0 01.77-.31 1 1 0 01.77.31 1.06 1.06 0 01.32.78v6.3l7-7a1.72 1.72 0 01.45-.35 1.06 1.06 0 01.45-.09.85.85 0 01.68.26.87.87 0 01.25.64 1.3 1.3 0 01-.4.94l-5.36 5.38 5.43 7.47a1.14 1.14 0 01.21.68 1.13 1.13 0 01-.27.74.85.85 0 01-.69.33 1 1 0 01-.91-.47l-5.31-7.2-1.51 1.51v5.06a1.09 1.09 0 01-1.86.78zm16-.44a5 5 0 01-2.3-2.41 1.14 1.14 0 01-.1-.42.8.8 0 01.23-.56 1.12 1.12 0 01.63-.32.51.51 0 01.21 0 1.18 1.18 0 01.64.2 1.31 1.31 0 01.45.54 3.08 3.08 0 001.49 1.39 5.43 5.43 0 002.46.56 4.75 4.75 0 002.67-.72 2.3 2.3 0 001.09-2 2.66 2.66 0 00-.93-2 4.69 4.69 0 00-2.81-1 7.19 7.19 0 01-4.09-1.53 4 4 0 01-1.49-3.18 3.65 3.65 0 01.76-2.32 4.76 4.76 0 012.1-1.49 8.34 8.34 0 013-.51 5.89 5.89 0 013.05.73 6.38 6.38 0 012.1 2.1 1.42 1.42 0 01.25.76.87.87 0 01-.42.75 1 1 0 01-.54.15 1.11 1.11 0 01-.59-.16 1 1 0 01-.42-.43 4 4 0 00-1.42-1.44 4.35 4.35 0 00-2.15-.49 4.84 4.84 0 00-2.59.62 2 2 0 00-1 1.8 2.28 2.28 0 00.88 1.82 6.1 6.1 0 003.15 1 6.61 6.61 0 013.91 1.52 4.34 4.34 0 011.38 3.35 4.13 4.13 0 01-.82 2.59 4.94 4.94 0 01-2.17 1.62 7.76 7.76 0 01-2.91.54A7.51 7.51 0 01167 88z" fill="#808797"/></g></g></svg>